{"title":"Neighbors 2 2016 Movies HDRip XviD AAC New Source +Sample ☻rDX☻","uid":15537241,"size":739405771,"categoryP":"video","categoryS":"movies","magnet":"?xt=urn:btih:c3ef9bd7ef7f5a25421ef0bd9392e4defc8bfa30&amp;dn=Neighbors+2+2016+Movies+HDRip+XviD+AAC+New+Source+%2BSample+%E2%98%BBrDX%E2%98%BB&amp;tr=udp%3A%2F%2Ftracker.leechers-paradise.org%3A6969&amp;tr=udp%3A%2F%2Fzer0day.ch%3A1337&amp;tr=udp%3A%2F%2Fopen.demonii.com%3A1337&amp;tr=udp%3A%2F%2Ftracker.coppersurfer.tk%3A6969&amp;tr=udp%3A%2F%2Fexodus.desync.com%3A6969","seeders":3,"leechers":4,"uploader":"basicssom","files":2,"time":1470888486,"description":"----------------------------------------------------------------\r\nNeighbors 2 Sorority Rising2016 English Movies HDRip XviD AAC New Source with Sample ☻rDX☻\r\n\r\nSCREEN SHOTS &amp; POSTER:\r\n  \nhttp://postimage.co.nr/2016/8/lawyer/index.htm  \nhttp://postimage.co.nr/2016/8/lawyer/1.html  \nhttp://postimage.co.nr/2016/8/lawyer/2.html  \nhttp://postimage.co.nr/2016/8/lawyer/3.html  \nhttp://postimage.co.nr/2016/8/lawyer/4.html  \nhttp://postimage.co.nr/2016/8/lawyer/5.html  \nhttp://postimage.co.nr/2016/8/lawyer/6.html  \nhttp://postimage.co.nr/2016/8/lawyer/7.html  \nhttp://postimage.co.nr/2016/8/lawyer/8.html  \nhttp://postimage.co.nr/2016/8/lawyer/9.html  \nhttp://postimage.co.nr/2016/8/lawyer/10.html\r\n\r\nFormat                                   : Matroska\r\nFormat version                           : Version 4 / Version 2\r\nFile size                                : 699 MiB\r\nDuration                                 : 1 h 32 min\r\nOverall bit rate mode                    : Constant\r\nOverall bit rate                         : 1 054 kb/s\r\nMovie name                               : Neighbors 2 Sorority Rising 2016 English Movies HDRip XviD AAC New Source ☻rDX☻\r\n\r\nVideo\r\nID                                       : 2\r\nFormat                                   : AVC\r\nFormat/Info                              : Advanced Video Codec\r\nFormat profile                           :   \r\nFormat settings, CABAC                   : Yes\r\nFormat settings, ReFrames                : 2 frames\r\nFormat settings, GOP                     : M=1, N=12\r\nCodec ID                                 : V_MPEG4/ISO/AVC\r\nDuration                                 : 1 h 32 min\r\nBit rate mode                            : Constant\r\nBit rate                                 : 671 kb/s\r\nWidth                                    : 720 pixels\r\nHeight                                   : 304 pixels\r\nDisplay aspect ratio                     : 2.35:1\r\nFrame rate mode                          : Constant\r\nFrame rate                               : 23.976 FPS\r\nColor space                              : YUV\r\nChroma subsampling                       : 4:2:0\r\nBit depth                                : 8 bits\r\nScan type                                : Progressive\r\nBits/(Pixel*Frame)                       : 0.128\r\nStream size                              : 431 MiB (62%)\r\nTitle                                    : ☻rDX☻\r\nDefault                                  : Yes\r\nForced                                   : No\r\n\r\nAudio\r\nID                                       : 1\r\nFormat                                   : AC-3\r\nFormat/Info                              : Audio Coding 3\r\nMode extension                           : CM (complete main)\r\nFormat settings, Endianness              : Big\r\nCodec ID                                 : A_AC3\r\nDuration                                 : 1 h 32 min\r\nBit rate mode                            : Constant\r\nBit rate                                 : 384 kb/s\r\nChannel(s)                               : 6 channels\r\nChannel positions                        : Front: L C R, Side: L R, LFE\r\nSampling rate                            : 48.0 kHz\r\nFrame rate                               : 31.250 FPS (1536 spf)\r\nCompression mode                         : Lossy\r\nStream size                              : 255 MiB (36%)\r\nTitle                                    : ☻rDX☻\r\nDefault                                  : Yes\r\nForced                                   : No\r\n\r\nIMDB \nhttp://www.imdb.com/title/tt4438848/","torrent":{"xt":"urn:btih:c3ef9bd7ef7f5a25421ef0bd9392e4defc8bfa30","amp;dn":"Neighbors+2+2016+Movies+HDRip+XviD+AAC+New+Source+%2BSample+%E2%98%BBrDX%E2%98%BB","amp;tr":["udp%3A%2F%2Ftracker.leechers-paradise.org%3A6969","udp%3A%2F%2Fzer0day.ch%3A1337","udp%3A%2F%2Fopen.demonii.com%3A1337","udp%3A%2F%2Ftracker.coppersurfer.tk%3A6969","udp%3A%2F%2Fexodus.desync.com%3A6969"],"infoHash":"c3ef9bd7ef7f5a25421ef0bd9392e4defc8bfa30","infoHashBuffer":{"type":"Buffer","data":[195,239,155,215,239,127,90,37,66,30,240,189,147,146,228,222,252,139,250,48]},"announce":[],"urlList":[]}}